<?xml version="1.0" standalone="no"?>
<!DOCTYPE svg PUBLIC "-//W3C//DTD SVG 20010904//EN"
 "http://www.w3.org/TR/2001/REC-SVG-20010904/DTD/svg10.dtd">
<svg version="1.0" xmlns="http://www.w3.org/2000/svg"
 width="180.000000pt" height="180.000000pt" viewBox="0 0 180.000000 180.000000"
 preserveAspectRatio="xMidYMid meet">

<g transform="translate(0.000000,180.000000) scale(0.100000,-0.100000)"
fill="#000000" stroke="none">
<path d="M340 1605 c-148 -42 -267 -162 -306 -309 -8 -28 -14 -87 -14 -132 0
-293 221 -625 566 -850 97 -64 279 -154 309 -154 12 0 76 27 141 60 294 149
524 372 644 622 110 230 106 460 -11 608 -148 187 -369 216 -600 77 -39 -23
-95 -64 -125 -90 l-54 -49 -54 49 c-157 140 -355 207 -496 168z m481 -422 c40
-34 68 -96 69 -151 1 -154 -154 -147 -205 9 -42 124 47 217 136 142z m273 16
c30 -14 56 -65 56 -111 -1 -43 -30 -106 -64 -138 -39 -36 -100 -34 -132 3 -50
58 -22 194 49 237 37 23 56 25 91 9z m-447 -221 c40 -42 53 -76 53 -142 0 -65
-24 -96 -74 -96 -67 0 -125 80 -126 171 0 64 28 99 79 99 29 0 44 -7 68 -32z
m640 17 c78 -55 19 -255 -75 -255 -44 0 -61 9 -77 41 -33 63 -2 173 59 210 38
23 64 24 93 4z m-300 -117 c89 -41 143 -138 143 -255 0 -51 -4 -67 -21 -84
-27 -27 -75 -21 -125 17 -48 37 -88 36 -151 -4 -58 -37 -95 -40 -124 -11 -19
19 -21 30 -17 104 3 66 9 91 31 128 33 55 87 102 142 121 44 16 60 14 122 -16z"/>
</g>
</svg>
